<?xml version="1.0" standalone="no"?>
<!DOCTYPE svg PUBLIC "-//W3C//DTD SVG 20010904//EN"
 "http://www.w3.org/TR/2001/REC-SVG-20010904/DTD/svg10.dtd">
<svg version="1.0" xmlns="http://www.w3.org/2000/svg"
 width="768.000000pt" height="768.000000pt" viewBox="0 0 768.000000 768.000000"
 preserveAspectRatio="xMidYMid meet">
<metadata>
Created by potrace 1.11, written by Peter Selinger 2001-2013
</metadata>
<g transform="translate(0.000000,768.000000) scale(0.100000,-0.100000)"
fill="#000000" stroke="none">
<path d="M4040 5433 l-21 -47 30 -139 c25 -117 34 -144 54 -161 21 -17 30 -43
52 -151 14 -71 29 -139 32 -150 5 -17 4 -18 -11 -6 -24 20 -23 13 39 -276 53
-246 192 -904 292 -1380 l46 -223 -29 -22 c-16 -13 -44 -37 -63 -54 -33 -30
-34 -31 -15 -52 10 -12 25 -22 33 -22 12 0 12 -3 3 -12 -9 -9 -8 -16 5 -30 13
-14 31 -18 94 -18 43 0 81 5 84 10 3 6 40 10 81 10 49 0 73 -4 69 -10 -4 -7
157 -10 505 -8 475 3 512 4 521 21 8 14 25 17 105 17 61 0 93 -4 89 -10 -4 -7
203 -10 614 -10 342 0 621 4 621 8 0 17 -138 142 -156 142 -11 0 -49 29 -84
65 -63 63 -66 65 -116 65 -34 0 -56 5 -64 15 -11 13 -65 15 -372 15 -204 0
-357 4 -354 9 3 5 -36 11 -87 13 -69 4 -96 2 -108 -8 -8 -8 -35 -14 -59 -14
-34 0 -50 -6 -72 -27 l-28 -27 -28 27 -28 27 -352 0 c-194 0 -352 4 -352 9 0
4 -42 11 -92 14 -76 4 -96 2 -111 -11 -25 -23 -32 -8 -14 35 8 21 12 52 10 69
-4 28 20 100 93 274 14 32 13 44 -1 110 -8 41 -22 109 -30 150 -8 41 -23 116
-34 165 -25 114 -104 493 -137 650 -13 66 -26 130 -29 143 -4 16 -1 22 11 22
12 0 15 6 10 23 -4 12 -16 72 -27 132 -13 71 -28 121 -41 140 -12 16 -27 52
-33 80 -11 46 -19 57 -113 138 -59 51 -102 96 -102 107 0 10 -30 42 -67 73
-57 47 -70 54 -79 42 -17 -23 -25 -19 -97 40 l-66 55 -21 -47z m260 -110 c34
-27 61 -58 64 -72 4 -17 40 -53 104 -105 l98 -78 11 -61 c7 -34 19 -67 27 -73
11 -8 66 -216 66 -250 0 -3 -10 -2 -22 1 -18 6 -20 4 -13 -11 11 -26 65 -271
115 -519 20 -99 39 -194 100 -484 45 -217 46 -230 26 -274 -71 -155 -94 -220
-89 -256 5 -37 -26 -121 -46 -121 -17 0 -19 13 -6 43 7 18 10 46 8 64 -4 24
10 69 52 173 l57 140 -22 103 c-12 56 -30 143 -40 192 -11 50 -28 133 -40 185
-31 148 -130 622 -136 655 -3 17 -8 38 -10 48 -4 11 0 17 11 17 13 0 16 5 11
23 -4 12 -15 67 -26 122 -21 114 -27 133 -48 157 -8 10 -20 41 -27 70 -11 50
-18 58 -113 141 -59 51 -102 96 -102 107 0 9 -20 34 -45 55 -25 20 -43 41 -40
46 9 14 14 12 75 -38z m-34 -30 c32 -26 45 -53 25 -53 -9 0 -71 66 -71 75 0
10 12 4 46 -22z m252 -298 c6 -33 18 -65 26 -71 11 -8 66 -216 66 -250 0 -3
-10 -2 -21 1 -14 5 -19 3 -15 -4 7 -11 45 -182 102 -461 39 -190 50 -243 113
-545 22 -110 41 -209 41 -220 0 -11 -24 -78 -54 -150 -40 -97 -52 -139 -49
-165 5 -37 -25 -118 -52 -140 -20 -16 -19 -12 6 55 11 30 18 64 14 75 -4 12
14 74 46 160 l52 141 -16 77 c-9 42 -64 304 -122 582 -58 278 -108 513 -111
523 -4 11 0 17 10 17 20 0 21 -11 -15 170 -22 109 -37 159 -49 170 -15 13 -40
95 -40 131 0 6 13 0 28 -13 21 -17 31 -38 40 -83z m2506 -2080 c38 -36 76 -65
85 -65 9 0 46 -29 81 -65 l64 -65 -595 0 c-503 0 -596 2 -596 14 0 19 291 28
735 24 182 -2 332 -1 332 2 0 12 -136 140 -150 140 -14 1 -90 64 -90 75 0 3
15 5 33 5 26 0 46 -13 101 -65z m-2191 -151 c-5 -14 30 -15 364 -8 337 6 372
5 405 -10 20 -10 39 -24 42 -32 5 -12 -53 -14 -399 -14 -263 0 -405 3 -405 10
0 6 -36 10 -89 10 -50 0 -93 -4 -96 -10 -9 -14 -138 -13 -153 2 -23 23 7 38
80 38 52 0 70 4 74 15 5 12 25 15 95 15 76 0 88 -2 82 -16z m1062 -15 c-27 -4
-55 -15 -61 -23 -6 -9 -15 -16 -19 -16 -11 0 -45 31 -45 42 0 4 39 7 88 7 81
-1 84 -2 37 -10z m-124 -19 l24 -19 -61 -1 c-47 0 -67 5 -85 20 l-24 19 61 1
c47 0 67 -5 85 -20z m206 14 c-3 -3 -12 -4 -19 -1 -8 3 -5 6 6 6 11 1 17 -2
13 -5z"/>
<path d="M2055 5320 c-214 -3 -388 -9 -386 -14 3 -7 -480 -498 -636 -647 l-52
-49 -2 -256 c-1 -180 2 -259 10 -267 6 -6 11 -18 11 -26 0 -8 19 -34 42 -58
40 -41 41 -43 24 -62 -16 -18 -18 -42 -17 -249 l2 -229 344 -344 c190 -189
345 -349 345 -356 0 -7 12 -13 27 -13 31 0 84 -46 76 -66 -4 -12 115 -14 781
-14 628 0 786 3 786 13 0 7 160 172 355 366 l354 354 2 235 1 234 -42 44 -42
44 29 0 c20 0 40 11 62 34 l33 34 -1 234 -2 234 -322 325 c-177 178 -341 344
-364 369 -23 25 -58 59 -78 75 -19 17 -33 36 -30 43 3 9 -78 12 -383 13 -213
0 -421 1 -462 2 -41 1 -250 0 -465 -3z m480 -180 c3 -5 2 -10 -4 -10 -5 0 -13
5 -16 10 -3 6 -2 10 4 10 5 0 13 -4 16 -10z m-50 -20 c18 -20 17 -20 -25 -20
-42 0 -43 0 -25 20 10 11 21 20 25 20 4 0 15 -9 25 -20z m26 3 c13 -16 12 -17
-3 -4 -10 7 -18 15 -18 17 0 8 8 3 21 -13z m87 5 c19 -19 14 -28 -16 -28 -35
0 -45 9 -31 27 14 16 31 17 47 1z m-78 -56 c-7 -3 -24 -17 -36 -31 -13 -14
-24 -20 -24 -13 0 6 -10 12 -22 12 -20 0 -20 1 -4 19 10 11 32 21 50 23 34 4
58 -3 36 -10z m70 -38 c-9 -10 -6 -19 17 -38 15 -14 35 -26 44 -26 9 0 28 -9
42 -20 14 -11 30 -20 36 -20 6 0 16 -9 23 -20 8 -12 24 -20 41 -20 15 0 30 -7
33 -15 5 -13 37 -15 204 -15 l197 0 229 -230 c126 -127 230 -240 232 -251 2
-11 -4 -29 -13 -39 -12 -13 -15 -28 -11 -44 3 -13 2 -36 -4 -50 -8 -21 -16
-26 -44 -26 l-35 0 -3 -156 c-3 -138 -1 -157 15 -171 10 -10 17 -31 17 -55 0
-21 5 -38 10 -38 6 0 10 -11 10 -24 0 -13 7 -30 16 -37 13 -11 15 -24 10 -69
l-7 -55 -242 -242 -242 -243 -212 0 -213 0 -42 -40 c-26 -26 -49 -40 -62 -38
-12 1 -33 -6 -49 -16 -25 -17 -29 -17 -46 -2 -9 9 -30 16 -45 16 -20 0 -41 12
-68 40 l-40 40 -212 0 -211 0 -227 228 c-243 244 -255 261 -219 315 13 21 17
40 14 70 -4 37 -1 46 26 71 l31 30 0 159 c0 150 -1 159 -20 164 -13 4 -20 14
-20 31 0 25 -1 25 -70 20 -64 -5 -72 -3 -85 16 -8 11 -15 43 -15 70 l0 50 252
253 252 253 218 0 217 0 37 40 c27 29 45 40 66 40 29 0 98 43 98 61 0 5 -10 9
-22 9 -20 0 -20 1 -3 19 9 11 34 21 54 23 45 4 55 0 41 -18z m-185 -13 c19 -8
19 -8 -2 -19 -12 -7 -35 -12 -50 -12 -20 0 -40 -11 -63 -35 l-34 -35 -212 0
-212 0 -238 -245 c-131 -135 -242 -245 -246 -245 -23 0 32 63 249 284 l242
246 221 0 c147 0 220 3 220 10 0 6 12 22 28 35 27 25 61 30 97 16z m272 -8 c6
-16 -39 -24 -55 -10 -12 10 -11 13 9 18 29 8 42 6 46 -8z m62 -18 l30 -35 213
0 212 0 38 -37 c21 -20 38 -41 38 -45 0 -15 -27 -8 -45 12 -17 19 -31 20 -215
20 -184 0 -198 1 -215 20 -10 11 -25 20 -34 20 -25 1 -54 27 -45 41 4 7 -1 18
-11 26 -11 7 -14 13 -8 13 6 0 25 -16 42 -35z m-271 -5 c30 0 -10 -29 -46 -34
-29 -3 -44 -13 -100 -63 -10 -10 -70 -13 -225 -13 l-212 0 -257 -257 c-142
-142 -258 -264 -258 -273 0 -12 -2 -12 -15 1 -11 11 -13 22 -7 38 4 12 115
132 246 266 l239 245 214 0 214 0 36 35 c22 22 46 35 62 35 14 0 40 11 56 24
23 19 31 21 33 10 2 -8 11 -14 20 -14z m742 -110 c0 -6 -65 -10 -174 -10 -106
0 -177 4 -181 10 -4 7 57 10 174 10 114 0 181 -4 181 -10z m274 -229 c115
-115 207 -214 205 -220 -4 -10 -402 382 -422 417 -26 40 31 -11 217 -197z
m656 -391 l0 -225 -31 -32 c-29 -32 -80 -45 -93 -24 -3 4 -23 11 -45 15 -54 8
-63 26 -13 26 33 0 43 6 68 38 l29 37 0 237 0 237 43 -41 42 -42 0 -226z
m-2610 -70 c0 -13 -7 -20 -20 -20 -13 0 -20 7 -20 20 0 13 7 20 20 20 13 0 20
-7 20 -20z m2100 11 c0 -6 -4 -13 -10 -16 -6 -4 -10 -64 -10 -146 0 -91 -4
-138 -10 -134 -6 4 -10 67 -10 156 0 142 1 149 20 149 11 0 20 -4 20 -9z
m-2100 -168 c0 -124 -1 -128 -27 -155 -22 -23 -26 -36 -24 -74 1 -32 -3 -52
-15 -65 -22 -25 -13 -109 16 -146 11 -14 20 -31 20 -37 0 -6 95 -106 212 -223
117 -117 209 -216 204 -220 -4 -4 -120 106 -257 246 l-249 254 0 54 c0 47 3
55 25 65 23 10 25 17 25 73 0 43 5 66 15 75 12 10 15 39 15 140 0 128 2 140
27 140 10 0 13 -28 13 -127z m40 -31 l0 -158 -30 -29 c-27 -26 -30 -33 -24
-75 5 -35 2 -49 -10 -59 -9 -7 -16 -27 -16 -44 0 -48 -18 -19 -21 33 -2 29 3
54 14 71 13 19 16 37 12 65 -6 34 -3 42 24 68 l31 30 0 128 c0 79 4 128 10
128 6 0 10 -59 10 -158z m-563 106 c-3 -8 -6 -5 -6 6 -1 11 2 17 5 13 3 -3 4
-12 1 -19z m3002 -44 c-26 -27 -41 -34 -70 -34 -21 0 -41 5 -44 10 -12 19 17
40 54 40 27 0 44 7 62 26 20 22 25 23 27 9 2 -9 -11 -32 -29 -51z m-2924 16
c23 0 41 -10 70 -40 25 -26 34 -40 24 -40 -9 0 -24 9 -34 20 -12 13 -31 20
-56 20 -27 0 -42 6 -53 22 -17 23 -11 47 7 29 6 -6 25 -11 42 -11z m41 -67
c16 -16 15 -18 -10 -26 -21 -7 -32 -5 -46 8 -11 10 -17 22 -14 26 9 15 52 10
70 -8z m2974 -142 c6 -12 10 -104 10 -233 l-1 -213 -363 -367 -364 -368 -282
0 c-238 0 -281 2 -271 14 6 7 9 21 5 30 -6 15 19 16 271 16 152 0 274 3 272 8
-3 4 152 167 344 362 l349 355 0 208 c0 201 5 233 30 188z m-420 -42 c9 -16 7
-19 -10 -19 -15 0 -20 7 -20 26 0 27 14 25 30 -7z m-2230 -31 c0 -32 -3 -39
-10 -28 -13 20 -13 70 0 70 6 0 10 -19 10 -42z m2230 -32 c0 -19 7 -39 16 -47
12 -10 15 -25 11 -62 -4 -49 -4 -49 -254 -299 -156 -156 -256 -249 -266 -247
-10 3 69 90 233 256 l249 252 3 48 c2 33 -2 56 -15 75 -18 28 -14 58 9 58 9 0
14 -12 14 -34z m-2025 -346 c71 -71 127 -130 125 -130 -3 0 -64 59 -135 130
-71 72 -127 130 -125 130 3 0 64 -58 135 -130z m752 -340 c29 -26 31 -30 13
-30 -22 0 -80 38 -80 52 0 18 34 6 67 -22z m363 23 c0 -16 -55 -63 -74 -63
-17 0 -16 5 14 35 31 32 60 45 60 28z m-242 -75 c17 -17 15 -28 -6 -28 -11 0
-27 9 -37 20 -18 19 -17 20 6 20 14 0 30 -5 37 -12z m107 -8 c-19 -21 -55 -27
-55 -10 0 12 31 29 54 30 18 0 18 -1 1 -20z m-120 -60 c8 -13 -5 -13 -25 0
-13 8 -13 10 2 10 9 0 20 -4 23 -10z m107 -2 c-9 -9 -15 -9 -24 0 -9 9 -7 12
12 12 19 0 21 -3 12 -12z m-196 -224 c-4 -9 -1 -23 5 -30 10 -12 -33 -14 -272
-14 -277 0 -283 0 -306 22 -13 12 -23 25 -23 30 0 4 135 8 301 8 274 0 301 -1
295 -16z m382 4 c9 -9 8 -16 -5 -30 -14 -16 -34 -18 -173 -18 -139 0 -159 2
-173 18 -32 35 -5 42 173 42 115 0 170 -4 178 -12z"/>
<path d="M3751 5248 c-1 -21 -7 -28 -28 -31 l-28 -4 27 -2 c21 -1 28 -7 31
-28 l4 -28 2 27 c1 19 7 28 24 31 22 4 22 4 0 6 -16 1 -23 9 -26 29 l-4 27 -2
-27z"/>
<path d="M3951 4938 c-1 -21 -7 -28 -28 -31 l-28 -4 27 -2 c21 -1 28 -7 31
-28 l4 -28 2 27 c1 19 7 28 24 31 22 4 22 4 0 6 -16 1 -23 9 -26 29 l-4 27 -2
-27z"/>
<path d="M4231 3948 c-1 -21 -7 -28 -28 -31 l-28 -4 27 -2 c21 -1 28 -7 31
-28 l4 -28 2 27 c1 19 7 28 24 31 22 4 22 4 0 6 -16 1 -23 9 -26 29 l-4 27 -2
-27z"/>
<path d="M4241 3508 c-1 -21 -7 -28 -28 -31 l-28 -4 27 -2 c21 -1 28 -7 31
-28 l4 -28 2 27 c1 19 7 28 24 31 22 4 22 4 0 6 -16 1 -23 9 -26 29 l-4 27 -2
-27z"/>
<path d="M4031 3108 c-1 -21 -7 -28 -28 -31 l-28 -4 27 -2 c21 -1 28 -7 31
-28 l4 -28 2 27 c1 19 7 28 24 31 22 4 22 4 0 6 -16 1 -23 9 -26 29 l-4 27 -2
-27z"/>
<path d="M4341 3108 c-1 -19 -7 -28 -23 -31 -23 -4 -23 -4 -1 -6 16 -1 23 -9
26 -28 l4 -28 2 27 c1 19 7 28 24 31 22 4 22 4 0 6 -16 1 -23 9 -26 29 l-4 27
-2 -27z"/>
<path d="M4341 2798 c-1 -19 -7 -28 -23 -31 -23 -4 -23 -4 -1 -6 16 -1 23 -9
26 -28 l4 -28 2 27 c1 19 7 28 24 31 22 4 22 4 0 6 -16 1 -23 9 -26 29 l-4 27
-2 -27z"/>
<path d="M4011 2788 c-1 -19 -7 -28 -23 -31 -23 -4 -23 -4 -1 -6 16 -1 23 -9
26 -28 l4 -28 2 27 c1 19 7 28 24 31 22 4 22 4 0 6 -16 1 -23 9 -26 29 l-4 27
-2 -27z"/>
<path d="M3671 2778 c-1 -21 -7 -28 -28 -31 l-28 -4 27 -2 c21 -1 28 -7 31
-28 l4 -28 2 27 c1 19 7 28 24 31 22 4 22 4 0 6 -16 1 -23 9 -26 29 l-4 27 -2
-27z"/>
</g>
</svg>
